HIERARCHY
ROOT Hips
{
	OFFSET 0.000000 0.000000 0.000000 
	CHANNELS 6 Xposition Yposition Zposition Zrotation Yrotation Xrotation
	JOINT LeftUpLeg
	{
		OFFSET 1.363060 -1.794630 0.839290 
		CHANNELS 3 Zrotation Yrotation Xrotation
		JOINT LeftLeg
		{
			OFFSET 2.448110 -6.726130 0.000000 
			CHANNELS 3 Zrotation Yrotation Xrotation
			JOINT LeftFoot
			{
				OFFSET 2.562200 -7.039590 0.000000 
				CHANNELS 3 Zrotation Yrotation Xrotation
				JOINT LeftToeBase
				{
					OFFSET 0.157640 -0.433110 2.322550 
					CHANNELS 3 Zrotation Yrotation Xrotation
					End Site
					{
						OFFSET 0.000000 0.000000 0.000000 
					}
				}
			}
		}
	}
	JOINT RightUpLeg
	{
		OFFSET -1.305520 -1.794630 0.839290 
		CHANNELS 3 Zrotation Yrotation Xrotation
		JOINT RightLeg
		{
			OFFSET -2.542530 -6.985550 0.000000 
			CHANNELS 3 Zrotation Yrotation Xrotation
			JOINT RightFoot
			{
				OFFSET -2.568260 -7.056230 0.000000 
				CHANNELS 3 Zrotation Yrotation Xrotation
				JOINT RightToeBase
				{
					OFFSET -0.164730 -0.452590 2.363150 
					CHANNELS 3 Zrotation Yrotation Xrotation
					End Site
					{
						OFFSET 0.000000 0.000000 0.000000 
					}
				}
			}
		}
	}
	JOINT Spine
	{
		OFFSET 0.028270 2.035590 -0.193380 
		CHANNELS 3 Zrotation Yrotation Xrotation
		JOINT Spine1
		{
			OFFSET 0.056720 2.048850 -0.042750 
			CHANNELS 3 Zrotation Yrotation Xrotation
			JOINT Neck1
			{
				OFFSET -0.054170 1.746240 0.172020 
				CHANNELS 3 Zrotation Yrotation Xrotation
				JOINT Head
				{
					OFFSET 0.104070 1.761360 -0.123970 
					CHANNELS 3 Zrotation Yrotation Xrotation
					End Site
					{
						OFFSET 0.000000 0.000000 0.000000 
					}
				}
			}
			JOINT LeftArm
			{
				OFFSET 3.362410 1.200890 -0.311210 
				CHANNELS 3 Zrotation Yrotation Xrotation
				JOINT LeftForeArm
				{
					OFFSET 4.983000 -0.000000 -0.000000 
					CHANNELS 3 Zrotation Yrotation Xrotation
					JOINT LeftHand
					{
						OFFSET 3.483560 -0.000000 -0.000000 
						CHANNELS 3 Zrotation Yrotation Xrotation
						JOINT LeftHandIndex1
						{
							OFFSET 0.715260 -0.000000 -0.000000 
							CHANNELS 3 Zrotation Yrotation Xrotation
							End Site
							{
								OFFSET 0.000000 0.000000 0.000000 
							}
						}
					}
				}
			}
			JOINT RightArm
			{
				OFFSET -3.136600 1.374050 -0.404650 
				CHANNELS 3 Zrotation Yrotation Xrotation
				JOINT RightForeArm
				{
					OFFSET -5.241900 -0.000000 -0.000000 
					CHANNELS 3 Zrotation Yrotation Xrotation
					JOINT RightHand
					{
						OFFSET -3.444170 -0.000000 -0.000000 
						CHANNELS 3 Zrotation Yrotation Xrotation
						JOINT RightHandIndex1
						{
							OFFSET -0.622530 -0.000000 -0.000000 
							CHANNELS 3 Zrotation Yrotation Xrotation
							End Site
							{
								OFFSET 0.000000 0.000000 0.000000 
							}
						}
					}
				}
			}
		}
	}
}
MOTION
Frames: 7
Frame Time: 0.041667
8.610473 17.848099 20.666992 -174.189425 -6.485319 173.545864 -14.365865 1.166847 17.510272 -0.280267 2.507542 4.301226 0.261033 -3.184607 -7.381756 0.003900 -0.404800 -1.112300 11.462722 -0.699702 -82.636287 -26.155611 -17.986364 109.182854 -0.514653 5.156428 -2.795463 -0.007700 0.564900 -1.552300 2.002751 0.927513 0.466824 5.429022 -0.047035 0.351341 3.744403 -1.383314 30.335590 2.085600 -3.460400 17.224000 -86.016948 4.589017 21.681210 17.838571 -29.249356 -4.485162 0.434507 0.976491 -4.146653 -7.125000 0.000000 0.000000 83.855440 -5.021608 8.087072 -14.510255 22.725245 -3.084800 0.107242 -0.104235 -5.672922 7.125000 0.000000 0.000000 
8.619261 17.838512 20.614463 -174.201194 -6.229137 173.810636 -14.337381 1.152376 16.907977 -0.276592 2.856323 5.262876 0.300603 -3.329558 -8.320209 0.005900 -0.496100 -1.363200 11.494060 -0.219237 -82.451557 -26.116478 -18.003920 109.062153 -0.487325 4.880140 -2.349718 -0.001500 0.249100 -0.684500 2.018830 0.980396 0.366235 5.496919 -0.004934 0.157803 3.875817 -1.341225 30.404694 2.197600 -3.485000 17.294000 -86.157745 4.593193 21.417023 17.700034 -29.082619 -4.431457 0.451857 0.987731 -3.433249 -7.125000 0.000000 0.000000 83.710761 -5.029090 8.503508 -14.747485 23.047976 -3.179794 0.105763 -0.101921 -5.867015 7.125000 0.000000 0.000000 
8.626751 17.840709 20.564431 -174.052476 -5.854869 174.088937 -14.129037 1.191463 16.131767 -0.260769 3.279516 6.434575 0.341212 -3.458104 -9.147162 0.017000 -0.842900 -2.316700 11.697675 0.342912 -82.225617 -26.061964 -18.027364 108.897174 -0.476929 4.872727 -1.887042 -0.002900 0.348300 -0.956900 2.052379 1.096793 0.318932 5.483035 0.063288 0.110509 3.892173 -1.274526 30.429040 2.235700 -3.479500 17.340300 -86.210733 4.321817 21.689062 17.415429 -28.725164 -4.304840 0.450954 0.981766 -3.552835 -7.125000 0.000000 0.000000 83.548759 -5.004070 9.169392 -15.086111 23.506098 -3.317286 0.110000 -0.097867 -6.403802 7.125000 0.000000 0.000000 
8.633042 17.836315 20.509805 -173.746275 -5.533840 174.193281 -13.787501 1.204098 15.502266 -0.234380 3.715361 7.640984 0.369122 -3.394819 -9.683659 0.038500 -1.266400 -3.482100 12.092445 0.778373 -81.677804 -25.994131 -18.061470 108.685656 -0.494464 5.192748 -1.842600 -0.001400 0.241500 -0.663600 2.143004 1.198867 0.345831 5.520976 0.108016 0.176311 3.832643 -1.176603 30.314727 2.240400 -3.446800 17.242200 -86.356153 4.032132 22.260335 17.154853 -28.404484 -4.190287 0.448994 0.980486 -4.214487 -7.125000 0.000000 0.000000 83.255315 -4.829011 9.882988 -15.392100 23.920443 -3.444008 0.111877 -0.092383 -6.946219 7.125000 0.000000 0.000000 
8.640732 17.818039 20.451084 -173.654602 -5.365741 174.304767 -13.683118 1.138713 15.062760 -0.201461 4.065355 8.608595 0.393973 -3.579983 -10.088123 0.011000 -0.676800 -1.860000 12.238537 1.066668 -81.099526 -25.939672 -18.088952 108.516030 -0.517365 5.576665 -1.916092 -0.010600 -0.663300 1.822700 2.223749 1.223559 0.368145 5.684433 0.107455 0.232549 3.747412 -1.079735 30.274544 2.225600 -3.422400 17.237400 -86.744126 4.033978 21.982211 17.234535 -28.530452 -4.237937 0.480126 0.994332 -3.842024 -7.125000 0.000000 0.000000 82.941603 -4.529764 10.356422 -15.598082 24.196029 -3.530608 0.106945 -0.089684 -7.096918 7.125000 0.000000 0.000000 
8.647323 17.795670 20.389167 -173.742034 -5.175771 174.506520 -13.777537 1.102486 14.546857 -0.154022 4.450836 9.679709 0.437735 -4.071016 -10.730135 0.000900 0.197200 0.541800 12.111455 1.397650 -80.745086 -25.910579 -18.103280 108.429416 -0.533451 5.917297 -1.825958 -0.020300 -0.919100 2.526100 2.201441 1.249587 0.359895 5.618695 0.124525 0.263510 3.618605 -1.011390 30.354211 2.138200 -3.390700 17.363400 -86.888526 4.069880 21.803452 17.344775 -28.672308 -4.289331 0.494245 0.988831 -3.631601 -7.125000 0.000000 0.000000 82.899736 -4.295868 10.793919 -15.830407 24.498721 -3.628108 0.108825 -0.088588 -7.269316 7.125000 0.000000 0.000000 
8.657210 17.777095 20.328949 -173.496433 -4.918169 174.775676 -13.482167 1.066014 13.913727 -0.103613 4.822257 10.724037 0.493283 -4.453379 -11.506952 0.002400 0.319600 0.878100 12.340973 1.963686 -80.480690 -25.876512 -18.122390 108.322524 -0.540055 6.059742 -1.787601 -0.003400 -0.377000 1.036000 2.210567 1.307382 0.297641 5.442563 0.174456 0.186056 3.554724 -0.983965 30.384382 2.086000 -3.377300 17.395500 -86.854739 4.090704 22.252567 17.293627 -28.590467 -4.256048 0.477233 0.966038 -4.393511 -7.125000 0.000000 0.000000 82.937562 -4.201773 11.219551 -16.107709 24.861710 -3.746917 0.112054 -0.087998 -7.579325 7.125000 0.000000 0.000000 
